<svg preserveAspectRatio="none" overflow="visible" style="display: block;" width="28" height="28" viewBox="0 0 28 28" fill="none" xmlns="http://www.w3.org/2000/svg">
<g id="petite main 1">
<path id="Vector" d="M21.875 3.5C22.2396 3.5 22.5814 3.56836 22.9004 3.70508C23.2194 3.8418 23.4974 4.02865 23.7344 4.26562C23.9714 4.5026 24.1582 4.7806 24.2949 5.09961C24.4316 5.41862 24.5 5.76042 24.5 6.125V18.375C24.5 19.4596 24.2949 20.4805 23.8848 21.4375C23.4746 22.3945 22.9095 23.2285 22.1895 23.9395C21.4694 24.6504 20.6354 25.2109 19.6875 25.6211C18.7396 26.0312 17.7188 26.2409 16.625 26.25C15.3125 26.25 14.0911 25.9993 12.9609 25.498C11.8307 24.9967 10.8008 24.2858 9.87109 23.3652L3.41797 16.9121C3.16276 16.6569 2.9668 16.3607 2.83008 16.0234C2.69336 15.6862 2.625 15.3398 2.625 14.9844C2.625 14.6016 2.69792 14.2461 2.84375 13.918C2.98958 13.5898 3.18555 13.2982 3.43164 13.043C3.67773 12.7878 3.96484 12.5964 4.29297 12.4688C4.62109 12.3411 4.97656 12.2682 5.35938 12.25C5.72396 12.25 6.07031 12.3184 6.39844 12.4551C6.72656 12.5918 7.02279 12.7923 7.28711 13.0566L8.75 14.5059V4.375C8.75 4.01042 8.81836 3.66862 8.95508 3.34961C9.0918 3.0306 9.27865 2.7526 9.51562 2.51562C9.7526 2.27865 10.0306 2.0918 10.3496 1.95508C10.6686 1.81836 11.0104 1.75 11.375 1.75C11.7122 1.75 12.0358 1.8138 12.3457 1.94141C12.4186 1.65885 12.5371 1.39909 12.7012 1.16211C12.8652 0.92513 13.0566 0.720052 13.2754 0.546875C13.4941 0.373698 13.7448 0.241536 14.0273 0.150391C14.3099 0.0592448 14.5924 0.00911458 14.875 0C15.1667 0 15.4492 0.0455729 15.7227 0.136719C15.9961 0.227865 16.2422 0.364583 16.4609 0.546875C16.6797 0.729167 16.8757 0.934245 17.0488 1.16211C17.222 1.38997 17.3405 1.64974 17.4043 1.94141C17.7142 1.8138 18.0378 1.75 18.375 1.75C18.6667 1.75 18.9492 1.79557 19.2227 1.88672C19.4961 1.97786 19.7422 2.11458 19.9609 2.29688C20.1797 2.47917 20.3757 2.68424 20.5488 2.91211C20.722 3.13997 20.8405 3.39974 20.9043 3.69141C21.2142 3.5638 21.5378 3.5 21.875 3.5ZM22.75 6.125C22.75 5.88802 22.6634 5.68294 22.4902 5.50977C22.3171 5.33659 22.112 5.25 21.875 5.25C21.638 5.25 21.4329 5.33659 21.2598 5.50977C21.0866 5.68294 21 5.88802 21 6.125V12.25C21 12.487 20.9134 12.6921 20.7402 12.8652C20.5671 13.0384 20.362 13.125 20.125 13.125C19.888 13.125 19.6829 13.0384 19.5098 12.8652C19.3366 12.6921 19.25 12.487 19.25 12.25V4.375C19.25 4.13802 19.1634 3.93294 18.9902 3.75977C18.8171 3.58659 18.612 3.5 18.375 3.5C18.138 3.5 17.9329 3.58659 17.7598 3.75977C17.5866 3.93294 17.5 4.13802 17.5 4.375V11.375C17.5 11.612 17.4134 11.8171 17.2402 11.9902C17.0671 12.1634 16.862 12.25 16.625 12.25C16.388 12.25 16.1829 12.1634 16.0098 11.9902C15.8366 11.8171 15.75 11.612 15.75 11.375V2.625C15.75 2.38802 15.6634 2.18294 15.4902 2.00977C15.3171 1.83659 15.112 1.75 14.875 1.75C14.638 1.75 14.4329 1.83659 14.2598 2.00977C14.0866 2.18294 14 2.38802 14 2.625V11.375C14 11.612 13.9134 11.8171 13.7402 11.9902C13.5671 12.1634 13.362 12.25 13.125 12.25C12.888 12.25 12.6829 12.1634 12.5098 11.9902C12.3366 11.8171 12.25 11.612 12.25 11.375V4.375C12.25 4.13802 12.1634 3.93294 11.9902 3.75977C11.8171 3.58659 11.612 3.5 11.375 3.5C11.138 3.5 10.9329 3.58659 10.7598 3.75977C10.5866 3.93294 10.5 4.13802 10.5 4.375V15.1348C10.5 15.3444 10.4635 15.5358 10.3906 15.709C10.3177 15.8822 10.2129 16.0417 10.0762 16.1875C9.93945 16.3333 9.77995 16.4382 9.59766 16.502C9.41536 16.5658 9.22396 16.6068 9.02344 16.625C8.82292 16.625 8.63151 16.5885 8.44922 16.5156C8.26693 16.4427 8.09831 16.3333 7.94336 16.1875L6.04297 14.2871C5.85156 14.0957 5.6237 14 5.35938 14C5.09505 14 4.86719 14.0957 4.67578 14.2871C4.48438 14.4785 4.38411 14.7109 4.375 14.9844C4.375 15.2487 4.4707 15.4766 4.66211 15.668L11.1152 22.1348C11.8809 22.9004 12.7194 23.4837 13.6309 23.8848C14.5423 24.2858 15.5404 24.4909 16.625 24.5C17.4727 24.5 18.2656 24.3405 19.0039 24.0215C19.7422 23.7025 20.3893 23.265 20.9453 22.709C21.5013 22.153 21.9388 21.5059 22.2578 20.7676C22.5768 20.0293 22.7409 19.2318 22.75 18.375V6.125Z" fill="#C4A96A"/>
</g>
</svg>
